<?xml version="1.0" standalone="no"?>
<!DOCTYPE svg PUBLIC "-//W3C//DTD SVG 20010904//EN"
 "http://www.w3.org/TR/2001/REC-SVG-20010904/DTD/svg10.dtd">
<svg version="1.0" xmlns="http://www.w3.org/2000/svg"
 width="700.000000pt" height="700.000000pt" viewBox="0 0 700.000000 700.000000"
 preserveAspectRatio="xMidYMid meet">
<metadata>
Created by potrace 1.11, written by Peter Selinger 2001-2013
</metadata>
<g transform="translate(0.000000,700.000000) scale(0.100000,-0.100000)"
fill="#000000" stroke="none">
<path d="M2683 6504 l2 -497 95 -1 95 -1 2 -1166 2 -1166 -97 1 -97 1 -2 -755
c-1 -415 -3 -795 -3 -845 l0 -90 -99 0 -98 1 1 -596 1 -595 95 0 95 0 3 -148
c2 -131 4 -147 20 -148 9 -1 53 -2 97 -3 l80 -1 3 -95 c1 -52 5 -96 8 -99 2
-3 46 -4 98 -3 l93 1 0 -52 c0 -108 -13 -97 126 -97 l123 0 0 -72 0 -73 199 0
199 0 0 73 0 72 100 0 101 0 -2 74 -3 75 83 -1 c45 0 90 1 100 1 15 1 17 13
17 99 l0 99 116 -1 c64 -1 120 1 125 4 4 3 10 71 11 150 l3 145 92 -1 c77 -1
93 1 97 15 3 9 5 277 5 596 l-1 581 -87 -1 c-47 -1 -92 1 -98 3 -10 3 -13 181
-13 843 0 664 -3 839 -12 840 -7 0 -52 1 -100 2 l-88 0 0 1168 0 1168 98 -1
97 -2 3 497 2 497 -845 0 -845 0 3 -496z"/>
</g>
</svg>
