<svg xmlns="http://www.w3.org/2000/svg" viewBox="0 0 141 141"><path fill="#cf4647" d="M59 17V5h23v12h-4v7H64v-7h-5zm27 104h-4v6h-4v3h-4v4h-6v-4h-4v-3h-5v-6h-4v-16h4V71h5V28h14l.2 43H82v34h4v16z"/><g fill="#eb7b59"><path d="M74 28h5v8h-5v-8z"/><path d="M70 32h5v8h-5v-8z"/><path d="M66 36h5v8h-5v-8z"/><path d="M62 40h5v8h-5v-8zm12 15h5v8h-5v-8z"/><path d="M70 59h5v8h-5v-8z"/><path d="M66 63h5v8h-5v-8z"/><path d="M62 67h5v8h-5v-8z"/><path d="M58 71h5v8h-5v-8zm16 15h5v8h-5v-8z"/><path d="M78 82h5v8h-5v-8zm-24 24h5v8h-5v-8zm16-16h5v8h-5v-8z"/><path d="M66 94h5v8h-5v-8z"/><path d="M62 98h5v8h-5v-8z"/><path d="M58 102h5v8h-5v-8zm20 11h5v8h-5v-8z"/><path d="M82 109h5v8h-5v-8zm-8 8h5v8h-5v-8z"/><path d="M70 121h5v8h-5v-8z"/><path d="M66 125h5v8h-5v-8z"/><path d="M62 129h5v8h-5v-8z"/></g><path fill="#3d3d3d" d="M88 101V67h-4V20h4V0H54v20h4v47h-4v34h-4v24h4v6h4v4h4v3h5v3h8v-3h4v-3h4v-4h5v-6h4v-24h-4zM59 17V5h23v12h-4v7H64v-7h-5zm27 104h-4v6h-4v3h-4v4h-6v-4h-4v-3h-5v-6h-4v-16h4V71h5V28h14l.2 43H82v34h4v16z"/></svg>
